G04 DipTrace 3.2.0.1*
G04 Bottom.gbr*
%MOIN*%
G04 #@! TF.FileFunction,Copper,L2,Bot*
G04 #@! TF.Part,Single*
G04 #@! TA.AperFunction,Conductor*
%ADD13C,0.03937*%
G04 #@! TA.AperFunction,ComponentPad*
%ADD15R,0.11811X0.11811*%
%ADD16C,0.11811*%
%ADD17C,0.075*%
%ADD18R,0.074803X0.074803*%
%ADD19C,0.074803*%
%ADD20C,0.06*%
%ADD21C,0.06*%
G04 #@! TA.AperFunction,ViaPad*
%ADD22C,0.059055*%
%FSLAX26Y26*%
G04*
G70*
G90*
G75*
G01*
G04 Bottom*
%LPD*%
X2843402Y968845D2*
D13*
Y1027902D1*
X2806001Y1065303D1*
X2576919D1*
X2498178Y986562D1*
Y749388D1*
X2187563Y838445D2*
Y970597D1*
X1839045Y748697D2*
Y891563D1*
X1760303Y970304D1*
X1534129D1*
X1893701Y2643701D2*
X1643701Y2893701D1*
X1543701D1*
X1793701Y1643701D2*
Y1814961D1*
X1714961Y1893701D1*
X1493701D1*
X2193701Y2893701D2*
X2293701D1*
X2543701Y2643701D1*
X2143701Y1732756D2*
Y1893701D1*
X2843701D2*
Y2043701D1*
X3093701Y2293701D1*
X2498178Y749388D2*
X2587921Y659646D1*
X3076311D1*
X3390256Y973591D1*
Y1893701D1*
X2843701D1*
X2493701Y1643701D2*
X2750906D1*
X2900906Y1493701D1*
X3093701D1*
X2187563Y970597D2*
Y1390256D1*
X2266303Y1468996D1*
X2318996D1*
X2493701Y1643701D1*
X1534129Y970304D2*
Y1029362D1*
X1496727Y1066764D1*
X1266229D1*
X1187488Y988023D1*
Y750660D1*
X1543701Y2893701D2*
Y2722441D1*
X1464961Y2643701D1*
X1143701D1*
X1493701Y1893701D2*
Y1722441D1*
X1414961Y1643701D1*
X1093701D1*
X1643701Y2643701D2*
X1897146Y2390256D1*
X3256201D1*
X3293701Y2352756D1*
Y2293701D1*
X2393701Y2643701D2*
X2072441D1*
X1993701Y2722441D1*
Y2893701D1*
X2643701D2*
Y2722441D1*
X2722441Y2643701D1*
X3043701D1*
X3311516D1*
X3390256Y2564961D1*
Y2131201D1*
X3352756Y2093701D1*
X3293701D1*
X1943701Y1893701D2*
Y1722441D1*
X2022441Y1643701D1*
X2293701D1*
X2443701Y1793701D1*
X3293701D1*
X1687488Y750660D2*
X1412869D1*
X1334129Y829401D1*
Y970304D1*
X1987563Y970597D2*
Y827437D1*
X2066303Y748697D1*
X2339045D1*
Y1311516D1*
X2417785Y1390256D1*
X3256201D1*
X3293701Y1427756D1*
Y1493701D1*
X2643402Y968845D2*
Y828133D1*
X2722146Y749388D1*
X2998178D1*
Y998178D1*
X3293701Y1293701D1*
X2093701Y2893701D2*
Y2952760D1*
X2056299Y2990162D1*
X1240162D1*
X1096850Y2846850D1*
X793701D1*
X2743701Y1893701D2*
Y1952760D1*
X2706299Y1990162D1*
X1083863D1*
X793701Y1700000D1*
X2087563Y970597D2*
Y1145504D1*
X1051409D1*
X852755Y946850D1*
X793701D1*
D22*
X2187563Y838445D3*
X2143701Y1732756D3*
D15*
X793701Y3043701D3*
D16*
Y2846850D3*
Y2650000D3*
D15*
Y2093701D3*
D16*
Y1896850D3*
Y1700000D3*
D15*
Y1143701D3*
D16*
Y946850D3*
Y750000D3*
D17*
X3293701Y2293701D3*
Y2193701D3*
Y2093701D3*
Y1293701D3*
Y1793701D3*
Y1693701D3*
Y1593701D3*
Y1993701D3*
Y1493701D3*
X3093701D3*
Y2293701D3*
X3193701D3*
Y1493701D3*
D18*
X1343701Y2893701D3*
D19*
X1443701D3*
X1543701D3*
D18*
X1993701D3*
D19*
X2093701D3*
X2193701D3*
D18*
X2643701D3*
D19*
X2743701D3*
X2843701D3*
D18*
X1293701Y1893701D3*
D19*
X1393701D3*
X1493701D3*
D18*
X1943701D3*
D19*
X2043701D3*
X2143701D3*
D18*
X2643701D3*
D19*
X2743701D3*
X2843701D3*
D18*
X1334129Y970304D3*
D19*
X1434129D3*
X1534129D3*
D18*
X1987563Y970597D3*
D19*
X2087563D3*
X2187563D3*
D18*
X2643402Y968845D3*
D19*
X2743402D3*
X2843402D3*
D20*
X1643701Y2643701D3*
D21*
X1143701D3*
D20*
X2393701D3*
D21*
X1893701D3*
D20*
X3043701D3*
D21*
X2543701D3*
D20*
X1593701Y1643701D3*
D21*
X1093701D3*
D20*
X2293701D3*
D21*
X1793701D3*
D20*
X2993701D3*
D21*
X2493701D3*
D20*
X1687488Y750660D3*
D21*
X1187488D3*
D20*
X2339045Y748697D3*
D21*
X1839045D3*
D20*
X2998178Y749388D3*
D21*
X2498178D3*
M02*
