G04 DipTrace 3.2.0.1*
G04 Through.gbr*
%MOIN*%
G04 #@! TF.FileFunction,Plated,1,2,PTH,Drill*
G04 #@! TF.Part,Single*
G04 Drill Symbols*
G04 D=0.038005 - Cross*
G04 D=0.03937 - X*
G04 D=0.043307 - Y*
G04 D=0.11811 - T*
G04 D=0.122047 - V*
%ADD10C,0.007874*%
%FSLAX26Y26*%
G04*
G70*
G90*
G75*
G01*
X770079Y3067323D2*
D10*
X793701Y3043701D1*
X817323Y3067323D1*
X793701Y3043701D2*
Y3020079D1*
X770079Y2870472D2*
X793701Y2846850D1*
X817323Y2870472D1*
X793701Y2846850D2*
Y2823228D1*
X770079Y2673622D2*
X793701Y2650000D1*
X817323Y2673622D1*
X793701Y2650000D2*
Y2626378D1*
X770079Y2117323D2*
X793701Y2093701D1*
X817323Y2117323D1*
X793701Y2093701D2*
Y2070079D1*
X770079Y1920472D2*
X793701Y1896850D1*
X817323Y1920472D1*
X793701Y1896850D2*
Y1873228D1*
X770079Y1723622D2*
X793701Y1700000D1*
X817323Y1723622D1*
X793701Y1700000D2*
Y1676378D1*
X770079Y1167323D2*
X793701Y1143701D1*
X817323Y1167323D1*
X793701Y1143701D2*
Y1120079D1*
X770079Y970472D2*
X793701Y946850D1*
X817323Y970472D1*
X793701Y946850D2*
Y923228D1*
X770079Y773622D2*
X793701Y750000D1*
X817323Y773622D1*
X793701Y750000D2*
Y726378D1*
X3270079Y2317323D2*
X3317323Y2270079D1*
Y2317323D2*
X3270079Y2270079D1*
Y2217323D2*
X3317323Y2170079D1*
Y2217323D2*
X3270079Y2170079D1*
Y2117323D2*
X3317323Y2070079D1*
Y2117323D2*
X3270079Y2070079D1*
Y1317323D2*
X3317323Y1270079D1*
Y1317323D2*
X3270079Y1270079D1*
Y1817323D2*
X3317323Y1770079D1*
Y1817323D2*
X3270079Y1770079D1*
Y1717323D2*
X3317323Y1670079D1*
Y1717323D2*
X3270079Y1670079D1*
Y1617323D2*
X3317323Y1570079D1*
Y1617323D2*
X3270079Y1570079D1*
Y2017323D2*
X3317323Y1970079D1*
Y2017323D2*
X3270079Y1970079D1*
Y1517323D2*
X3317323Y1470079D1*
Y1517323D2*
X3270079Y1470079D1*
X3070079Y1517323D2*
X3117323Y1470079D1*
Y1517323D2*
X3070079Y1470079D1*
Y2317323D2*
X3117323Y2270079D1*
Y2317323D2*
X3070079Y2270079D1*
X3170079Y2317323D2*
X3217323Y2270079D1*
Y2317323D2*
X3170079Y2270079D1*
Y1517323D2*
X3217323Y1470079D1*
Y1517323D2*
X3170079Y1470079D1*
X1320079Y2917323D2*
X1343701Y2893701D1*
X1367323Y2917323D1*
X1343701Y2893701D2*
Y2870079D1*
X1420079Y2917323D2*
X1443701Y2893701D1*
X1467323Y2917323D1*
X1443701Y2893701D2*
Y2870079D1*
X1520079Y2917323D2*
X1543701Y2893701D1*
X1567323Y2917323D1*
X1543701Y2893701D2*
Y2870079D1*
X1970079Y2917323D2*
X1993701Y2893701D1*
X2017323Y2917323D1*
X1993701Y2893701D2*
Y2870079D1*
X2070079Y2917323D2*
X2093701Y2893701D1*
X2117323Y2917323D1*
X2093701Y2893701D2*
Y2870079D1*
X2170079Y2917323D2*
X2193701Y2893701D1*
X2217323Y2917323D1*
X2193701Y2893701D2*
Y2870079D1*
X2620079Y2917323D2*
X2643701Y2893701D1*
X2667323Y2917323D1*
X2643701Y2893701D2*
Y2870079D1*
X2720079Y2917323D2*
X2743701Y2893701D1*
X2767323Y2917323D1*
X2743701Y2893701D2*
Y2870079D1*
X2820079Y2917323D2*
X2843701Y2893701D1*
X2867323Y2917323D1*
X2843701Y2893701D2*
Y2870079D1*
X1270079Y1917323D2*
X1293701Y1893701D1*
X1317323Y1917323D1*
X1293701Y1893701D2*
Y1870079D1*
X1370079Y1917323D2*
X1393701Y1893701D1*
X1417323Y1917323D1*
X1393701Y1893701D2*
Y1870079D1*
X1470079Y1917323D2*
X1493701Y1893701D1*
X1517323Y1917323D1*
X1493701Y1893701D2*
Y1870079D1*
X1920079Y1917323D2*
X1943701Y1893701D1*
X1967323Y1917323D1*
X1943701Y1893701D2*
Y1870079D1*
X2020079Y1917323D2*
X2043701Y1893701D1*
X2067323Y1917323D1*
X2043701Y1893701D2*
Y1870079D1*
X2120079Y1917323D2*
X2143701Y1893701D1*
X2167323Y1917323D1*
X2143701Y1893701D2*
Y1870079D1*
X2620079Y1917323D2*
X2643701Y1893701D1*
X2667323Y1917323D1*
X2643701Y1893701D2*
Y1870079D1*
X2720079Y1917323D2*
X2743701Y1893701D1*
X2767323Y1917323D1*
X2743701Y1893701D2*
Y1870079D1*
X2820079Y1917323D2*
X2843701Y1893701D1*
X2867323Y1917323D1*
X2843701Y1893701D2*
Y1870079D1*
X1310507Y993927D2*
X1334129Y970304D1*
X1357751Y993927D1*
X1334129Y970304D2*
Y946682D1*
X1410507Y993927D2*
X1434129Y970304D1*
X1457751Y993927D1*
X1434129Y970304D2*
Y946682D1*
X1510507Y993927D2*
X1534129Y970304D1*
X1557751Y993927D1*
X1534129Y970304D2*
Y946682D1*
X1963941Y994219D2*
X1987563Y970597D1*
X2011185Y994219D1*
X1987563Y970597D2*
Y946975D1*
X2063941Y994219D2*
X2087563Y970597D1*
X2111185Y994219D1*
X2087563Y970597D2*
Y946975D1*
X2163941Y994219D2*
X2187563Y970597D1*
X2211185Y994219D1*
X2187563Y970597D2*
Y946975D1*
X2619780Y992467D2*
X2643402Y968845D1*
X2667024Y992467D1*
X2643402Y968845D2*
Y945223D1*
X2719780Y992467D2*
X2743402Y968845D1*
X2767024Y992467D1*
X2743402Y968845D2*
Y945223D1*
X2819780Y992467D2*
X2843402Y968845D1*
X2867024Y992467D1*
X2843402Y968845D2*
Y945223D1*
X1643701Y2667323D2*
Y2620079D1*
X1620079Y2643701D2*
X1667323D1*
X1143701Y2667323D2*
Y2620079D1*
X1120079Y2643701D2*
X1167323D1*
X2393701Y2667323D2*
Y2620079D1*
X2370079Y2643701D2*
X2417323D1*
X1893701Y2667323D2*
Y2620079D1*
X1870079Y2643701D2*
X1917323D1*
X3043701Y2667323D2*
Y2620079D1*
X3020079Y2643701D2*
X3067323D1*
X2543701Y2667323D2*
Y2620079D1*
X2520079Y2643701D2*
X2567323D1*
X1593701Y1667323D2*
Y1620079D1*
X1570079Y1643701D2*
X1617323D1*
X1093701Y1667323D2*
Y1620079D1*
X1070079Y1643701D2*
X1117323D1*
X2293701Y1667323D2*
Y1620079D1*
X2270079Y1643701D2*
X2317323D1*
X1793701Y1667323D2*
Y1620079D1*
X1770079Y1643701D2*
X1817323D1*
X2993701Y1667323D2*
Y1620079D1*
X2970079Y1643701D2*
X3017323D1*
X2493701Y1667323D2*
Y1620079D1*
X2470079Y1643701D2*
X2517323D1*
X1687488Y774282D2*
Y727038D1*
X1663866Y750660D2*
X1711110D1*
X1187488Y774282D2*
Y727038D1*
X1163866Y750660D2*
X1211110D1*
X2339045Y772319D2*
Y725075D1*
X2315423Y748697D2*
X2362667D1*
X1839045Y772319D2*
Y725075D1*
X1815423Y748697D2*
X1862667D1*
X2998178Y773010D2*
Y725766D1*
X2974556Y749388D2*
X3021801D1*
X2498178Y773010D2*
Y725766D1*
X2474556Y749388D2*
X2521801D1*
X2163941Y862067D2*
X2187563Y838445D1*
X2211185Y862067D1*
X2187563Y838445D2*
Y814823D1*
X2120079Y1756378D2*
X2143701Y1732756D1*
X2167323Y1756378D1*
X2143701Y1732756D2*
Y1709134D1*
X520079Y3293701D2*
X567323D1*
X543701D2*
Y3270079D1*
X520079Y567323D2*
X543701Y543701D1*
X567323Y567323D1*
X3370079D2*
X3393701Y543701D1*
X3417323Y567323D1*
X3370079Y3293701D2*
X3417323D1*
X3393701D2*
Y3270079D1*
M02*
