G04 DipTrace 3.2.0.1*
G04 TopPaste.gbr*
%MOIN*%
G04 #@! TF.FileFunction,Paste,Top*
G04 #@! TF.Part,Single*
%ADD32C,0.052126*%
%ADD34C,0.052126*%
%ADD36C,0.066929*%
%ADD38R,0.066929X0.066929*%
%ADD40C,0.067126*%
%ADD42C,0.110236*%
%ADD44R,0.110236X0.110236*%
%FSLAX26Y26*%
G04*
G70*
G90*
G75*
G01*
G04 TopPaste*
%LPD*%
D44*
X793701Y3043701D3*
D42*
Y2846850D3*
Y2650000D3*
D44*
Y2093701D3*
D42*
Y1896850D3*
Y1700000D3*
D44*
Y1143701D3*
D42*
Y946850D3*
Y750000D3*
D40*
X3293701Y2293701D3*
Y2193701D3*
Y2093701D3*
Y1293701D3*
Y1793701D3*
Y1693701D3*
Y1593701D3*
Y1993701D3*
Y1493701D3*
X3093701D3*
Y2293701D3*
X3193701D3*
Y1493701D3*
D38*
X1343701Y2893701D3*
D36*
X1443701D3*
X1543701D3*
D38*
X1993701D3*
D36*
X2093701D3*
X2193701D3*
D38*
X2643701D3*
D36*
X2743701D3*
X2843701D3*
D38*
X1293701Y1893701D3*
D36*
X1393701D3*
X1493701D3*
D38*
X1943701D3*
D36*
X2043701D3*
X2143701D3*
D38*
X2643701D3*
D36*
X2743701D3*
X2843701D3*
D38*
X1334129Y970304D3*
D36*
X1434129D3*
X1534129D3*
D38*
X1987563Y970597D3*
D36*
X2087563D3*
X2187563D3*
D38*
X2643402Y968845D3*
D36*
X2743402D3*
X2843402D3*
D34*
X1643701Y2643701D3*
D32*
X1143701D3*
D34*
X2393701D3*
D32*
X1893701D3*
D34*
X3043701D3*
D32*
X2543701D3*
D34*
X1593701Y1643701D3*
D32*
X1093701D3*
D34*
X2293701D3*
D32*
X1793701D3*
D34*
X2993701D3*
D32*
X2493701D3*
D34*
X1687488Y750660D3*
D32*
X1187488D3*
D34*
X2339045Y748697D3*
D32*
X1839045D3*
D34*
X2998178Y749388D3*
D32*
X2498178D3*
M02*
