G04 DipTrace 3.2.0.1*
G04 TopSilk.gbr*
%MOIN*%
G04 #@! TF.FileFunction,Legend,Top*
G04 #@! TF.Part,Single*
%ADD10C,0.009843*%
%ADD14C,0.019685*%
%ADD45C,0.00772*%
%ADD46C,0.012351*%
%FSLAX26Y26*%
G04*
G70*
G90*
G75*
G01*
G04 TopSilk*
%LPD*%
X893701Y3143701D2*
D14*
X693701D1*
Y2543701D1*
X893701D1*
Y3143701D1*
Y2193701D2*
X693701D1*
Y1593701D1*
X893701D1*
Y2193701D1*
Y1243701D2*
X693701D1*
Y643701D1*
X893701D1*
Y1243701D1*
X3343701Y2343701D2*
D10*
X3043701D1*
Y1243701D1*
X3343701D1*
Y2343701D1*
X1246850Y3000000D2*
X1640551D1*
Y2822835D1*
X1246850D1*
Y3000000D1*
Y2964567D2*
X1640551D1*
X1896850Y3000000D2*
X2290551D1*
Y2822835D1*
X1896850D1*
Y3000000D1*
Y2964567D2*
X2290551D1*
X2546850Y3000000D2*
X2940551D1*
Y2822835D1*
X2546850D1*
Y3000000D1*
Y2964567D2*
X2940551D1*
X1196850Y2000000D2*
X1590551D1*
Y1822835D1*
X1196850D1*
Y2000000D1*
Y1964567D2*
X1590551D1*
X1846850Y2000000D2*
X2240551D1*
Y1822835D1*
X1846850D1*
Y2000000D1*
Y1964567D2*
X2240551D1*
X2546850Y2000000D2*
X2940551D1*
Y1822835D1*
X2546850D1*
Y2000000D1*
Y1964567D2*
X2940551D1*
X1237278Y1076604D2*
X1630979D1*
Y899438D1*
X1237278D1*
Y1076604D1*
Y1041171D2*
X1630979D1*
X1890713Y1076896D2*
X2284413D1*
Y899731D1*
X1890713D1*
Y1076896D1*
Y1041463D2*
X2284413D1*
X2546551Y1075144D2*
X2940252D1*
Y897979D1*
X2546551D1*
Y1075144D1*
Y1039711D2*
X2940252D1*
X1243621Y2693701D2*
X1543781D1*
Y2593701D2*
Y2693701D1*
X1243621Y2593701D2*
X1543781D1*
X1243621D2*
Y2693701D1*
X1993621D2*
X2293781D1*
Y2593701D2*
Y2693701D1*
X1993621Y2593701D2*
X2293781D1*
X1993621D2*
Y2693701D1*
X2643621D2*
X2943781D1*
Y2593701D2*
Y2693701D1*
X2643621Y2593701D2*
X2943781D1*
X2643621D2*
Y2693701D1*
X1193621Y1693701D2*
X1493781D1*
Y1593701D2*
Y1693701D1*
X1193621Y1593701D2*
X1493781D1*
X1193621D2*
Y1693701D1*
X1893621D2*
X2193781D1*
Y1593701D2*
Y1693701D1*
X1893621Y1593701D2*
X2193781D1*
X1893621D2*
Y1693701D1*
X2593621D2*
X2893781D1*
Y1593701D2*
Y1693701D1*
X2593621Y1593701D2*
X2893781D1*
X2593621D2*
Y1693701D1*
X1287408Y800660D2*
X1587568D1*
Y700660D2*
Y800660D1*
X1287408Y700660D2*
X1587568D1*
X1287408D2*
Y800660D1*
X1938965Y798697D2*
X2239125D1*
Y698697D2*
Y798697D1*
X1938965Y698697D2*
X2239125D1*
X1938965D2*
Y798697D1*
X2598098Y799388D2*
X2898258D1*
Y699388D2*
Y799388D1*
X2598098Y699388D2*
X2898258D1*
X2598098D2*
Y799388D1*
X791950Y3216924D2*
D45*
Y3178677D1*
X789574Y3171492D1*
X787142Y3169116D1*
X782389Y3166684D1*
X777580D1*
X772827Y3169116D1*
X770450Y3171492D1*
X768019Y3178677D1*
Y3183431D1*
X807390Y3207307D2*
X812198Y3209739D1*
X819383Y3216869D1*
Y3166684D1*
X781200Y2266924D2*
Y2228677D1*
X778824Y2221492D1*
X776392Y2219116D1*
X771639Y2216684D1*
X766830D1*
X762077Y2219116D1*
X759701Y2221492D1*
X757269Y2228677D1*
Y2233431D1*
X799071Y2254930D2*
Y2257307D1*
X801448Y2262115D1*
X803825Y2264492D1*
X808633Y2266869D1*
X818195D1*
X822948Y2264492D1*
X825324Y2262115D1*
X827756Y2257307D1*
Y2252554D1*
X825324Y2247745D1*
X820571Y2240616D1*
X796640Y2216684D1*
X830133D1*
X781200Y1316924D2*
Y1278677D1*
X778824Y1271492D1*
X776392Y1269116D1*
X771639Y1266684D1*
X766830D1*
X762077Y1269116D1*
X759701Y1271492D1*
X757269Y1278677D1*
Y1283431D1*
X801448Y1316869D2*
X827701D1*
X813386Y1297745D1*
X820571D1*
X825324Y1295369D1*
X827701Y1292992D1*
X830133Y1285807D1*
Y1281054D1*
X827701Y1273869D1*
X822948Y1269060D1*
X815763Y1266684D1*
X808578D1*
X801448Y1269060D1*
X799071Y1271492D1*
X796640Y1276245D1*
X3180012Y2416924D2*
Y2378677D1*
X3177635Y2371492D1*
X3175204Y2369116D1*
X3170450Y2366684D1*
X3165642D1*
X3160889Y2369116D1*
X3158512Y2371492D1*
X3156080Y2378677D1*
Y2383431D1*
X3219383Y2366684D2*
Y2416869D1*
X3195451Y2383431D1*
X3231321D1*
X1425204Y3073223D2*
X1420450Y3070902D1*
X1415642Y3066093D1*
X1413265Y3061285D1*
X1410834Y3054100D1*
Y3042162D1*
X1413265Y3034977D1*
X1415642Y3030223D1*
X1420450Y3025415D1*
X1425204Y3023038D1*
X1434765D1*
X1439574Y3025415D1*
X1444327Y3030223D1*
X1446703Y3034977D1*
X1449135Y3042162D1*
Y3054100D1*
X1446703Y3061285D1*
X1444327Y3066093D1*
X1439574Y3070902D1*
X1434765Y3073223D1*
X1425204D1*
X1432389Y3032600D2*
X1446703Y3018230D1*
X1464575Y3063606D2*
X1469383Y3066038D1*
X1476568Y3073168D1*
Y3022983D1*
X2064454Y3073223D2*
X2059701Y3070902D1*
X2054892Y3066093D1*
X2052515Y3061285D1*
X2050084Y3054100D1*
Y3042162D1*
X2052515Y3034977D1*
X2054892Y3030223D1*
X2059701Y3025415D1*
X2064454Y3023038D1*
X2074015D1*
X2078824Y3025415D1*
X2083577Y3030223D1*
X2085954Y3034977D1*
X2088385Y3042162D1*
Y3054100D1*
X2085954Y3061285D1*
X2083577Y3066093D1*
X2078824Y3070902D1*
X2074015Y3073223D1*
X2064454D1*
X2071639Y3032600D2*
X2085954Y3018230D1*
X2106256Y3061230D2*
Y3063606D1*
X2108633Y3068415D1*
X2111010Y3070791D1*
X2115818Y3073168D1*
X2125380D1*
X2130133Y3070791D1*
X2132510Y3068415D1*
X2134941Y3063606D1*
Y3058853D1*
X2132510Y3054045D1*
X2127756Y3046915D1*
X2103825Y3022983D1*
X2137318D1*
X2714454Y3073223D2*
X2709701Y3070902D1*
X2704892Y3066093D1*
X2702515Y3061285D1*
X2700084Y3054100D1*
Y3042162D1*
X2702515Y3034977D1*
X2704892Y3030223D1*
X2709701Y3025415D1*
X2714454Y3023038D1*
X2724015D1*
X2728824Y3025415D1*
X2733577Y3030223D1*
X2735954Y3034977D1*
X2738385Y3042162D1*
Y3054100D1*
X2735954Y3061285D1*
X2733577Y3066093D1*
X2728824Y3070902D1*
X2724015Y3073223D1*
X2714454D1*
X2721639Y3032600D2*
X2735954Y3018230D1*
X2758633Y3073168D2*
X2784886D1*
X2770571Y3054045D1*
X2777756D1*
X2782510Y3051668D1*
X2784886Y3049291D1*
X2787318Y3042106D1*
Y3037353D1*
X2784886Y3030168D1*
X2780133Y3025360D1*
X2772948Y3022983D1*
X2765763D1*
X2758633Y3025360D1*
X2756256Y3027792D1*
X2753825Y3032545D1*
X1363265Y2073223D2*
X1358512Y2070902D1*
X1353704Y2066093D1*
X1351327Y2061285D1*
X1348895Y2054100D1*
Y2042162D1*
X1351327Y2034977D1*
X1353704Y2030223D1*
X1358512Y2025415D1*
X1363265Y2023038D1*
X1372827D1*
X1377635Y2025415D1*
X1382389Y2030223D1*
X1384765Y2034977D1*
X1387197Y2042162D1*
Y2054100D1*
X1384765Y2061285D1*
X1382389Y2066093D1*
X1377635Y2070902D1*
X1372827Y2073223D1*
X1363265D1*
X1370450Y2032600D2*
X1384765Y2018230D1*
X1426568Y2022983D2*
Y2073168D1*
X1402636Y2039730D1*
X1438506D1*
X2014454Y2073223D2*
X2009701Y2070902D1*
X2004892Y2066093D1*
X2002515Y2061285D1*
X2000084Y2054100D1*
Y2042162D1*
X2002515Y2034977D1*
X2004892Y2030223D1*
X2009701Y2025415D1*
X2014454Y2023038D1*
X2024015D1*
X2028824Y2025415D1*
X2033577Y2030223D1*
X2035954Y2034977D1*
X2038385Y2042162D1*
Y2054100D1*
X2035954Y2061285D1*
X2033577Y2066093D1*
X2028824Y2070902D1*
X2024015Y2073223D1*
X2014454D1*
X2021639Y2032600D2*
X2035954Y2018230D1*
X2082510Y2073168D2*
X2058633D1*
X2056256Y2051668D1*
X2058633Y2054045D1*
X2065818Y2056476D1*
X2072948D1*
X2080133Y2054045D1*
X2084941Y2049291D1*
X2087318Y2042106D1*
Y2037353D1*
X2084941Y2030168D1*
X2080133Y2025360D1*
X2072948Y2022983D1*
X2065818D1*
X2058633Y2025360D1*
X2056256Y2027792D1*
X2053825Y2032545D1*
X2715670Y2073223D2*
X2710916Y2070902D1*
X2706108Y2066093D1*
X2703731Y2061285D1*
X2701300Y2054100D1*
Y2042162D1*
X2703731Y2034977D1*
X2706108Y2030223D1*
X2710916Y2025415D1*
X2715670Y2023038D1*
X2725231D1*
X2730040Y2025415D1*
X2734793Y2030223D1*
X2737169Y2034977D1*
X2739601Y2042162D1*
Y2054100D1*
X2737169Y2061285D1*
X2734793Y2066093D1*
X2730040Y2070902D1*
X2725231Y2073223D1*
X2715670D1*
X2722855Y2032600D2*
X2737169Y2018230D1*
X2783725Y2066038D2*
X2781349Y2070791D1*
X2774164Y2073168D1*
X2769411D1*
X2762226Y2070791D1*
X2757417Y2063606D1*
X2755041Y2051668D1*
Y2039730D1*
X2757417Y2030168D1*
X2762226Y2025360D1*
X2769411Y2022983D1*
X2771787D1*
X2778917Y2025360D1*
X2783725Y2030168D1*
X2786102Y2037353D1*
Y2039730D1*
X2783725Y2046915D1*
X2778917Y2051668D1*
X2771787Y2054045D1*
X2769411D1*
X2762226Y2051668D1*
X2757417Y2046915D1*
X2755041Y2039730D1*
X1404882Y1149827D2*
X1400128Y1147505D1*
X1395320Y1142697D1*
X1392943Y1137889D1*
X1390511Y1130703D1*
Y1118765D1*
X1392943Y1111580D1*
X1395320Y1106827D1*
X1400128Y1102019D1*
X1404882Y1099642D1*
X1414443D1*
X1419252Y1102019D1*
X1424005Y1106827D1*
X1426381Y1111580D1*
X1428813Y1118765D1*
Y1130703D1*
X1426381Y1137889D1*
X1424005Y1142697D1*
X1419252Y1147505D1*
X1414443Y1149827D1*
X1404882D1*
X1412067Y1109204D2*
X1426381Y1094834D1*
X1453814Y1099587D2*
X1477746Y1149771D1*
X1444252D1*
X2058344Y1150119D2*
X2053590Y1147798D1*
X2048782Y1142990D1*
X2046405Y1138181D1*
X2043973Y1130996D1*
Y1119058D1*
X2046405Y1111873D1*
X2048782Y1107120D1*
X2053590Y1102311D1*
X2058344Y1099935D1*
X2067905D1*
X2072714Y1102311D1*
X2077467Y1107120D1*
X2079843Y1111873D1*
X2082275Y1119058D1*
Y1130996D1*
X2079843Y1138181D1*
X2077467Y1142990D1*
X2072714Y1147798D1*
X2067905Y1150119D1*
X2058344D1*
X2065529Y1109496D2*
X2079843Y1095126D1*
X2109653Y1150064D2*
X2102523Y1147688D1*
X2100091Y1142934D1*
Y1138126D1*
X2102523Y1133373D1*
X2107276Y1130941D1*
X2116838Y1128564D1*
X2124023Y1126188D1*
X2128776Y1121379D1*
X2131153Y1116626D1*
Y1109441D1*
X2128776Y1104688D1*
X2126399Y1102256D1*
X2119214Y1099879D1*
X2109653D1*
X2102523Y1102256D1*
X2100091Y1104688D1*
X2097714Y1109441D1*
Y1116626D1*
X2100091Y1121379D1*
X2104900Y1126188D1*
X2112029Y1128564D1*
X2121591Y1130941D1*
X2126399Y1133373D1*
X2128776Y1138126D1*
Y1142934D1*
X2126399Y1147688D1*
X2119214Y1150064D1*
X2109653D1*
X2715343Y1148367D2*
X2710590Y1146046D1*
X2705781Y1141238D1*
X2703405Y1136429D1*
X2700973Y1129244D1*
Y1117306D1*
X2703405Y1110121D1*
X2705781Y1105368D1*
X2710590Y1100559D1*
X2715343Y1098183D1*
X2724904D1*
X2729713Y1100559D1*
X2734466Y1105368D1*
X2736843Y1110121D1*
X2739274Y1117306D1*
Y1129244D1*
X2736843Y1136429D1*
X2734466Y1141238D1*
X2729713Y1146046D1*
X2724904Y1148367D1*
X2715343D1*
X2722528Y1107744D2*
X2736843Y1093374D1*
X2785830Y1131621D2*
X2783399Y1124436D1*
X2778645Y1119627D1*
X2771460Y1117251D1*
X2769084D1*
X2761899Y1119627D1*
X2757146Y1124436D1*
X2754714Y1131621D1*
Y1133997D1*
X2757146Y1141182D1*
X2761899Y1145936D1*
X2769084Y1148312D1*
X2771460D1*
X2778645Y1145936D1*
X2783399Y1141182D1*
X2785830Y1131621D1*
Y1119627D1*
X2783399Y1107689D1*
X2778645Y1100504D1*
X2771460Y1098127D1*
X2766707D1*
X2759522Y1100504D1*
X2757146Y1105312D1*
X1363238Y2742992D2*
X1384738D1*
X1391923Y2745424D1*
X1394354Y2747801D1*
X1396731Y2752554D1*
Y2757362D1*
X1394354Y2762115D1*
X1391923Y2764547D1*
X1384738Y2766924D1*
X1363238D1*
Y2716684D1*
X1379984Y2742992D2*
X1396731Y2716684D1*
X1412170Y2757307D2*
X1416979Y2759739D1*
X1424164Y2766869D1*
Y2716684D1*
X2102488Y2742992D2*
X2123988D1*
X2131173Y2745424D1*
X2133605Y2747801D1*
X2135981Y2752554D1*
Y2757362D1*
X2133605Y2762115D1*
X2131173Y2764547D1*
X2123988Y2766924D1*
X2102488D1*
Y2716684D1*
X2119234Y2742992D2*
X2135981Y2716684D1*
X2153852Y2754930D2*
Y2757307D1*
X2156229Y2762115D1*
X2158605Y2764492D1*
X2163414Y2766869D1*
X2172976D1*
X2177729Y2764492D1*
X2180105Y2762115D1*
X2182537Y2757307D1*
Y2752554D1*
X2180105Y2747745D1*
X2175352Y2740616D1*
X2151420Y2716684D1*
X2184914D1*
X2752488Y2742992D2*
X2773988D1*
X2781173Y2745424D1*
X2783605Y2747801D1*
X2785981Y2752554D1*
Y2757362D1*
X2783605Y2762115D1*
X2781173Y2764547D1*
X2773988Y2766924D1*
X2752488D1*
Y2716684D1*
X2769234Y2742992D2*
X2785981Y2716684D1*
X2806229Y2766869D2*
X2832482D1*
X2818167Y2747745D1*
X2825352D1*
X2830105Y2745369D1*
X2832482Y2742992D1*
X2834914Y2735807D1*
Y2731054D1*
X2832482Y2723869D1*
X2827729Y2719060D1*
X2820544Y2716684D1*
X2813359D1*
X2806229Y2719060D1*
X2803852Y2721492D1*
X2801420Y2726245D1*
X1301300Y1742992D2*
X1322799D1*
X1329984Y1745424D1*
X1332416Y1747801D1*
X1334793Y1752554D1*
Y1757362D1*
X1332416Y1762115D1*
X1329984Y1764547D1*
X1322799Y1766924D1*
X1301300D1*
Y1716684D1*
X1318046Y1742992D2*
X1334793Y1716684D1*
X1374164D2*
Y1766869D1*
X1350232Y1733431D1*
X1386102D1*
X2002488Y1742992D2*
X2023988D1*
X2031173Y1745424D1*
X2033605Y1747801D1*
X2035981Y1752554D1*
Y1757362D1*
X2033605Y1762115D1*
X2031173Y1764547D1*
X2023988Y1766924D1*
X2002488D1*
Y1716684D1*
X2019234Y1742992D2*
X2035981Y1716684D1*
X2080105Y1766869D2*
X2056229D1*
X2053852Y1745369D1*
X2056229Y1747745D1*
X2063414Y1750177D1*
X2070544D1*
X2077729Y1747745D1*
X2082537Y1742992D1*
X2084914Y1735807D1*
Y1731054D1*
X2082537Y1723869D1*
X2077729Y1719060D1*
X2070544Y1716684D1*
X2063414D1*
X2056229Y1719060D1*
X2053852Y1721492D1*
X2051420Y1726245D1*
X2703704Y1742992D2*
X2725204D1*
X2732389Y1745424D1*
X2734821Y1747801D1*
X2737197Y1752554D1*
Y1757362D1*
X2734821Y1762115D1*
X2732389Y1764547D1*
X2725204Y1766924D1*
X2703704D1*
Y1716684D1*
X2720450Y1742992D2*
X2737197Y1716684D1*
X2781321Y1759739D2*
X2778945Y1764492D1*
X2771760Y1766869D1*
X2767006D1*
X2759821Y1764492D1*
X2755013Y1757307D1*
X2752636Y1745369D1*
Y1733431D1*
X2755013Y1723869D1*
X2759821Y1719060D1*
X2767006Y1716684D1*
X2769383D1*
X2776513Y1719060D1*
X2781321Y1723869D1*
X2783698Y1731054D1*
Y1733431D1*
X2781321Y1740616D1*
X2776513Y1745369D1*
X2769383Y1747745D1*
X2767006D1*
X2759821Y1745369D1*
X2755013Y1740616D1*
X2752636Y1733431D1*
X1396275Y849951D2*
X1417775D1*
X1424960Y852383D1*
X1427392Y854760D1*
X1429769Y859513D1*
Y864322D1*
X1427392Y869075D1*
X1424960Y871507D1*
X1417775Y873883D1*
X1396275D1*
Y823643D1*
X1413022Y849951D2*
X1429769Y823643D1*
X1454769D2*
X1478701Y873828D1*
X1445208D1*
X2047859Y847988D2*
X2069359D1*
X2076544Y850420D1*
X2078976Y852797D1*
X2081353Y857550D1*
Y862358D1*
X2078976Y867111D1*
X2076544Y869543D1*
X2069359Y871920D1*
X2047859D1*
Y821680D1*
X2064606Y847988D2*
X2081353Y821680D1*
X2108730Y871865D2*
X2101600Y869488D1*
X2099168Y864735D1*
Y859926D1*
X2101600Y855173D1*
X2106354Y852741D1*
X2115915Y850365D1*
X2123100Y847988D1*
X2127853Y843180D1*
X2130230Y838427D1*
Y831242D1*
X2127853Y826488D1*
X2125477Y824057D1*
X2118292Y821680D1*
X2108730D1*
X2101600Y824057D1*
X2099168Y826488D1*
X2096792Y831242D1*
Y838427D1*
X2099168Y843180D1*
X2103977Y847988D1*
X2111107Y850365D1*
X2120668Y852741D1*
X2125477Y855173D1*
X2127853Y859926D1*
Y864735D1*
X2125477Y869488D1*
X2118292Y871865D1*
X2108730D1*
X2708154Y848680D2*
X2729654D1*
X2736839Y851112D1*
X2739271Y853488D1*
X2741647Y858241D1*
Y863050D1*
X2739271Y867803D1*
X2736839Y870235D1*
X2729654Y872612D1*
X2708154D1*
Y822372D1*
X2724900Y848680D2*
X2741647Y822372D1*
X2788203Y855865D2*
X2785771Y848680D1*
X2781018Y843871D1*
X2773833Y841495D1*
X2771456D1*
X2764271Y843871D1*
X2759518Y848680D1*
X2757086Y855865D1*
Y858241D1*
X2759518Y865426D1*
X2764271Y870180D1*
X2771456Y872556D1*
X2773833D1*
X2781018Y870180D1*
X2785771Y865426D1*
X2788203Y855865D1*
Y843871D1*
X2785771Y831933D1*
X2781018Y824748D1*
X2773833Y822372D1*
X2769080D1*
X2761895Y824748D1*
X2759518Y829557D1*
X3394934Y2095413D2*
D46*
X3475318D1*
X3475319Y2141309D1*
X3394934Y2215710D2*
Y2166012D1*
X3475318D1*
Y2215710D1*
X3433225Y2166012D2*
Y2196609D1*
X3394934Y2240413D2*
X3475318D1*
Y2267208D1*
X3471427Y2278704D1*
X3463822Y2286397D1*
X3456129Y2290200D1*
X3444721Y2294002D1*
X3425532D1*
X3414036Y2290200D1*
X3406431Y2286397D1*
X3398737Y2278704D1*
X3394934Y2267208D1*
Y2240413D1*
X3410322Y2318705D2*
X3406431Y2326399D1*
X3395023Y2337895D1*
X3475318D1*
X3395770Y1730650D2*
X3476154D1*
Y1776545D1*
X3395770Y1850946D2*
Y1801248D1*
X3476154D1*
Y1850946D1*
X3434061Y1801248D2*
Y1831845D1*
X3395770Y1875649D2*
X3476154D1*
Y1902444D1*
X3472263Y1913940D1*
X3464658Y1921633D1*
X3456965Y1925436D1*
X3445557Y1929239D1*
X3426368D1*
X3414872Y1925436D1*
X3407267Y1921634D1*
X3399573Y1913940D1*
X3395770Y1902444D1*
Y1875649D1*
X3414960Y1957832D2*
X3411157D1*
X3403464Y1961635D1*
X3399661Y1965437D1*
X3395859Y1973131D1*
Y1988430D1*
X3399661Y1996035D1*
X3403464Y1999837D1*
X3411157Y2003728D1*
X3418763D1*
X3426456Y1999837D1*
X3437864Y1992232D1*
X3476154Y1953941D1*
Y2007531D1*
X3395770Y1330650D2*
X3476154D1*
Y1376545D1*
X3395770Y1450946D2*
Y1401248D1*
X3476154D1*
Y1450946D1*
X3434061Y1401248D2*
Y1431845D1*
X3395770Y1475649D2*
X3476154D1*
Y1502444D1*
X3472263Y1513940D1*
X3464658Y1521633D1*
X3456965Y1525436D1*
X3445557Y1529239D1*
X3426368D1*
X3414872Y1525436D1*
X3407267Y1521634D1*
X3399573Y1513940D1*
X3395770Y1502444D1*
Y1475649D1*
X3395859Y1561635D2*
Y1603640D1*
X3426456Y1580736D1*
Y1592232D1*
X3430259Y1599837D1*
X3434061Y1603640D1*
X3445557Y1607531D1*
X3453162D1*
X3464658Y1603640D1*
X3472352Y1596035D1*
X3476154Y1584539D1*
Y1573043D1*
X3472352Y1561635D1*
X3468461Y1557832D1*
X3460856Y1553941D1*
X544934Y2695413D2*
X625318D1*
X625319Y2741309D1*
X544934Y2815710D2*
Y2766012D1*
X625318D1*
Y2815710D1*
X583225Y2766012D2*
Y2796609D1*
X544934Y2840413D2*
X625318D1*
Y2867208D1*
X621427Y2878704D1*
X613822Y2886397D1*
X606129Y2890200D1*
X594721Y2894002D1*
X575532D1*
X564036Y2890200D1*
X556431Y2886397D1*
X548737Y2878704D1*
X544934Y2867208D1*
Y2840413D1*
X560322Y2918705D2*
X556431Y2926399D1*
X545023Y2937895D1*
X625318D1*
X495770Y1780650D2*
X576154D1*
Y1826545D1*
X495770Y1900946D2*
Y1851248D1*
X576154D1*
Y1900946D1*
X534061Y1851248D2*
Y1881845D1*
X495770Y1925649D2*
X576154D1*
Y1952444D1*
X572263Y1963940D1*
X564658Y1971633D1*
X556965Y1975436D1*
X545557Y1979239D1*
X526368D1*
X514872Y1975436D1*
X507267Y1971634D1*
X499573Y1963940D1*
X495770Y1952444D1*
Y1925649D1*
X514960Y2007832D2*
X511157D1*
X503464Y2011635D1*
X499661Y2015437D1*
X495859Y2023131D1*
Y2038430D1*
X499661Y2046035D1*
X503464Y2049837D1*
X511157Y2053728D1*
X518763D1*
X526456Y2049837D1*
X537864Y2042232D1*
X576154Y2003941D1*
Y2057531D1*
X495770Y880650D2*
X576154D1*
Y926545D1*
X495770Y1000946D2*
Y951248D1*
X576154D1*
Y1000946D1*
X534061Y951248D2*
Y981845D1*
X495770Y1025649D2*
X576154D1*
Y1052444D1*
X572263Y1063940D1*
X564658Y1071633D1*
X556965Y1075436D1*
X545557Y1079239D1*
X526368D1*
X514872Y1075436D1*
X507267Y1071634D1*
X499573Y1063940D1*
X495770Y1052444D1*
Y1025649D1*
X495859Y1111635D2*
Y1153640D1*
X526456Y1130736D1*
Y1142232D1*
X530259Y1149837D1*
X534061Y1153640D1*
X545557Y1157531D1*
X553162D1*
X564658Y1153640D1*
X572352Y1146035D1*
X576154Y1134539D1*
Y1123043D1*
X572352Y1111635D1*
X568461Y1107832D1*
X560856Y1103941D1*
M02*
